<svg xmlns="http://www.w3.org/2000/svg" width="666.667" height="533.333" version="1.0" viewBox="0 0 500 400">
  <path d="M242.5 12.4c-4.9 1.5-28.5 14.2-37 19.9-3.3 2.2-7.8 5.7-10 7.7-2.9 2.8-6.2 4.5-12 6.3-17.6 5.5-35 13.7-42.1 19.9-1.8 1.6-3.1 3.4-2.8 3.9.3.5 0 .9-.7.9s-1 .2-.7.5c.3.3 1.3.2 2.2-.1 1.3-.5 1.4-.9.6-1.4-3.1-1.9 17.8-13 36.6-19.3l13.1-4.4-1.6 3.8c-.9 2.3-2.5 4-3.8 4.3-4.3 1.1-37.4 12.9-37 13.2.4.4 7.1-1.7 16.2-5 3.8-1.4 7.9-2.6 9-2.6 1.1 0 4.4-.9 7.4-2 2.9-1.2 5.6-1.9 5.8-1.6.8.7-1.7 15.8-3.3 20.3-.8 2.3-4.2 7.6-7.4 11.8-5.6 7.2-8.6 13.2-7.8 15.6.2.5 2.3-2.4 4.7-6.6 6.5-11.4 21.7-34 31.2-46.2 10.6-13.5 27.9-31.2 34.3-34.8 10.7-6.2 17-3.3 35.9 15.9 15.4 15.7 26.3 29 36.8 44.8 10.1 15.3 14.1 23.5 14.6 30.1l.4 5.2-6.6-12.4c-13.3-25-26.6-43.4-44-60.7-9-9-13.8-12.9-18.5-15.2-6.2-3.1-12.5-4.1-16.6-2.5-1.7.6-1.7.7 0 1.3 1.4.5.6 1.4-3.9 4.4-12.9 8.6-22.6 19.4-49.9 56.1-7.4 9.9-14.9 19.7-16.6 21.7l-3.1 3.7 2.6 9.5c1.4 5.3 4.3 13.9 6.5 19.3 3.8 9.3 13.9 27.5 16 28.8 1.8 1.1 1.1 2.5-1.2 2.5-3.6 0-13.9-5.4-19-9.9-2.5-2.2-6.3-6.4-8.3-9.2l-3.7-5.1 3.8 2.8c3.3 2.6 3.6 2.7 2.6.7-1.8-3.3-7.1-7-12-8.2-5.1-1.4-6.6-3.5-8.6-12.6-2.8-12.3-3-12.6-3.6-5.5-.5 6.1-.7 6.5-3.1 6.8-2.1.2-2.9-.3-4.2-3-.8-1.8-1.8-4.2-2.1-5.3-.3-1.1-.3-.1 0 2.3.2 2.4 1.9 7.1 3.7 10.5 1.7 3.4 3.3 6.5 3.5 6.9.2.4-7.2.6-16.5.5-14.9-.2-17.2 0-19.7 1.7-2.5 1.6-2.8 2.2-2.3 5.7.8 6.2 1.9 6.9 10.6 6.8 4.2 0 11-.4 15.1-.8s7.7-.6 7.9-.5c.9.8-2.3 3.3-5 3.9-4.2.9-3.6 2.1 1 1.7 3.3-.3 3.9-.1 4.4 1.9.8 2.8-1.1 6.7-4 8.6-2.1 1.4-2.3 1.2-4.2-3.1-1.2-2.5-2.1-5-2.1-5.7 0-.7-.7-.8-1.8-.4-.9.4-4.1 1.6-7.1 2.6-6.1 2.1-9.1 4.4-9.1 6.9 0 2.3 6.2 8 8.8 8 1.2 0 6.7-2.3 12.2-5.2 5.5-2.8 10.2-4.9 10.6-4.5.4.3-3 4.2-7.5 8.5-4.4 4.2-8.1 8.3-8.1 8.9 0 1.7 5.9 6.3 8.1 6.3 1.1 0 3.6-2.2 6-5.3 2.3-2.8 4.5-5.3 4.9-5.5.4-.1 1 3.5 1.4 8.2 1 12.4 3.8 21.5 7.5 24.8 1.7 1.6 3.8 2.8 4.6 2.8 3.1 0 6.5-4.5 8.1-11 1.8-7.2 1.5-12.5-1.7-33-1.1-6.9-2.1-14.1-2.4-16l-.4-3.5 1.3 3.4c1.3 3.5 3.2 2.9 2-.6-.5-1.3.2-1 2.1 1 2.7 2.8 2.8 5 .1 2.8-2.4-2-2.8 1.6-.7 6.7 3 7 4.2 17.9 3.5 30.5-.8 16.7-3.4 21.9-11.7 23.6-2.8.6-2.7.7 3 4.1 5.3 3.2 6.3 3.5 13.8 3.5 6.9 0 9.2-.6 17-3.7 4.9-2 9-3.6 9.1-3.5.4.4 3.6 18.4 5 28.2 1.9 13.9 1.7 22.8-.6 32.1-5.4 20.8-19.4 39.5-35.7 47.6-6.3 3.1-7.4 3.3-16.8 3.3-7.6 0-10.8-.4-13.1-1.7-3.9-2.1-8.7-9.2-10.4-15.3-1.1-3.9-1.6-4.5-3.4-3.9-4.1 1.3-7.6 3.4-8.6 5.4-1.8 3.4-3 2.2-3-3 0-8.6-1.9-15.1-5.6-18.8-4.4-4.4-6.9-4-11.1 1.9l-3.3 4.6 1.9 3.6c1 2 2.2 6 2.5 8.9l.7 5.3 6.4-.3c7.2-.4 15.8 1.7 19.7 4.8 5.3 4.1 8.3 15.3 5.9 21.5-.4 1.1-.2 3.5.5 5.5.7 1.9 1.5 4.7 1.8 6.2.6 2.4 1.1 2.7 5.9 3.1l5.2.3-5.2.2c-4 .2-5.3.6-5.3 1.7 0 1.2 1.3 1.5 5.9 1.5 4.9 0 6.9-.6 10.8-3 9.6-5.9 31.7-11.3 45.5-11.1l6.6.1 4.7-6.5c4.7-6.6 7.4-9.1 3.5-3.2l-2.2 3.2 3.1-3.5c9.2-10.2 33.7-49.8 57.3-92.5 32.9-59.4 52.9-97.7 55.9-107 1.3-3.9 2.5-7.2 2.8-7.5.3-.3.7-1.6.7-3 .1-1.4.7-7.5 1.4-13.6l1.3-11.2-3-5.3c-1.7-3-5.3-9.1-8.1-13.7-3.4-5.6-5.6-10.5-6.6-15.2-1.7-7.3-2-11-1-11 2.7 0 25.6 12.7 29.1 16.1 3.7 3.6 4.4 3.9 5 2.3.5-1.3-.3-2.5-2.8-4.6-3.7-3.2-19.6-11.5-27.3-14.3-2.9-1.1-5.1-2.7-5.6-3.9-3.1-8.2-4.9-11.2-8.4-14.3l-4.1-3.6 7 .7c7.8.6 25.7 4.3 39.8 8 13.6 3.7 15.2 4.2 15 5.2-.1.5-1.5 4.5-3.1 8.9-3.2 8.8-5.4 13.2-9.1 18.4-2.2 3.1-2.3 3.5-.9 6.5 1.5 3.1 1.4 3.4-6.3 19.5-4.4 9-7.9 16.7-7.8 17 0 .3 3.8-6.9 8.5-16.2 5.5-10.8 9-16.7 10-16.7 2.9 0 5.4 2.1 5.4 4.4 0 4.5-39.7 81.9-84.7 165.3-2.5 4.6-4.1 8.8-3.7 9.4.4.7.3.9-.3.6-1.8-1.1-45.7 81.8-45.1 85.1.2 1 1.8-1.1 4.1-5.3 4.6-8.4 4.6-8.3-3.3 12.3-4.4 11.4-6.6 15.9-7.2 15-.6-.9-.7-.3-.3 1.5.3 1.7.2 2.6-.4 2.3-.5-.3-1.2.6-1.5 2.2-.4 1.5-.9 3.5-1.3 4.6-1.5 5.2 2.5-1.1 10.8-17.2 13.1-25.2 15.2-29.2 15.5-28.9.2.1-1.9 6.5-4.5 14.2-2.7 7.7-5.2 15.6-5.6 17.5-.7 3.3-.6 3.4.9 1.5.8-1.1 3-6.1 4.7-11.2 1.8-5 3.7-8.9 4.2-8.6.5.3.6-.5.3-1.8s-.3-1.8 0-1c.5 1.1 1 .9 2.3-.8 1.5-2 1.6-1.7 1.4 5.6l-.2 7.8 2.4-10.5c3.4-14.9 3.5-14.9 2.9-1l-.5 12.5 2-3c1.2-1.7 2.8-5.1 3.7-7.8.8-2.6 2-4.7 2.5-4.7s.9.1.9.3c0 .2.7 5.3 1.5 11.3 1.7 11.8 3.1 15.4 2.8 7.1l-.1-5.2.7 4.5c.4 2.6 1 3.9 1.3 3 2.1-5.2 2.8-9 2.3-13.4-.4-4-.3-4.5.5-2.6 1 2.6.7-2.6-.6-13-.8-6.1.6-4.4 4.6 5.8 2.6 6.5 4.4 9.4 8.2 13 2.7 2.6 5.4 4.9 5.9 5 1.4.6 1.1-1.6-.7-4.4-2.3-3.5-1.2-3.9 2.4-.9 1.8 1.5 4.2 2.5 6 2.5h3.1l-3.5-5.1c-5-7.5-4.2-8 1.7-1 4 4.8 5.9 6.3 9.2 7.1 6.2 1.6 11.7 4.3 16.5 8.4 2.4 2 5 3.6 5.7 3.6 2.4 0 8-7.5 10.3-13.5 1.2-3.3 4.9-10.9 8.2-16.9 3.3-6 5.9-10.9 5.8-11.1-.2-.1-3.2-1.2-6.8-2.5-20.9-7.3-32.5-24.9-36.1-54.5-2-15.8.8-55.4 4.1-58.9.5-.4 2.3.3 4.2 1.7 4.9 3.7 10.2 5 17.1 4.4 12.6-1.1 19.8-10.7 22.3-29.9.7-5.7 1.4-11 1.4-11.8.1-1.5 3.6 2.1 7.3 7.4 2.2 3.2 6.8 3.5 9.7.6 4.1-4.1 2.4-8.2-5.9-14-5.4-3.8-7.8-6.6-6.8-7.7.3-.2 4.6 1.7 9.6 4.3 5 2.6 9.4 4.4 9.7 4.1.4-.3-1-1.4-3-2.3-4.1-2-4.6-4.5-2.1-9.4l1.5-2.9 5.2 2.3c2.9 1.3 6.1 2.6 7.1 2.9 2.2.8 2.1 2.6-.4 5.7l-2 2.5.6-2.5.6-2.5-2 2.4c-2.6 2.9-2.6 4.1-.3 4.1 2.4 0 5-2.9 6.1-6.7.8-2.9.7-3-6.3-6-10.5-4.6-11.6-4.9-11.6-2.3 0 2.6-2.7 8-4.1 8-2.3 0-5.9-3.4-5.9-5.5 0-4.2 1.1-5.5 4.4-5.5h3.1l-3.2-2c-3.8-2.3-4.4-4.5-1-3.6 1.2.3 8.2.9 15.4 1.3l13.3.6 1.5-3.6c2.2-5.2 1.9-7.4-1.2-9.4-2.3-1.5-5.1-1.8-18.9-1.8-8.9 0-16.5-.3-16.9-.7-.4-.4.2-2 1.4-3.7 2.8-3.8 5.1-10.5 5.1-14.5 0-3.6-2.4-7.6-4.5-7.6-.9 0-.6.9 1 2.5 4.8 4.7 1.9 13.6-3.9 12.1l-2.8-.7.7-6.7c1-9.7-1.1-6.8-3.1 4.3-1.8 9.6-5 14.5-9.4 14.5-1.2 0-3 .5-4.1 1-2.3 1.3-2.5.2-.5-2.6 2-2.8 15.5-30.1 19.2-38.7 1.5-3.7 3.4-6.7 4.1-6.7 2.8 0 1-1.6-4.7-4.2-8.8-3.9-9.1-5.5-3.8-15.3 2.4-4.3 5.2-10.6 6.3-13.9 2.7-8.1 3.8-8.6 11.9-5.2 3.7 1.6 7 2.5 7.4 2.2.4-.4-.1-1.2-1.1-1.7-.9-.6-1.7-1.8-1.8-2.7 0-1-.3-1.2-.6-.5-.7 1.8-3.8 1.6-5.3-.2-1.3-1.6-.9-1.8 2.5-1.6 1.9.1 1.9.1.2-1-1.4-.8-3-.8-6.3.1-3.7 1.1-5 1-8.4-.4-11.3-4.5-48.9-12.6-58.5-12.6-4.7 0-10.4-3.2-33-18.3-10.8-7.2-13.1-7.8-21-5.3zm16.4 17.3c9.7 5.7 32.4 30 38.6 41.4 1.4 2.7 2.9 7.1 3.2 9.9.6 5.3 1.8 6.5 2.7 2.7.3-1.2.3 1.4.1 5.8-.4 10-5.7 27.7-8 26.8-2.7-1-1.6 1.1 2 4 3 2.4 3.5 3.4 3.5 7 0 5.1-1.8 7.9-6.4 10.1-4.3 2-9.4 2-14.5 0-4.1-1.6-8.1-.7-8.1 1.8 0 .7.5.6 1.5-.2 1.9-1.6 4.6-.6 8 3 2.1 2.2 2.4 3 1.3 3-.9 0-2.1-.7-2.8-1.5-1.8-2.2-2.3-1.2-.9 1.8 1 2.1.9 3-.2 4.3-1.2 1.5-1.5 1.3-3.7-1.2l-2.4-2.9.6 2.8c.9 3.8 0 6.4-2.4 7-1.5.4-2.1-.1-2.5-1.6-.2-1.2-.6-3.1-.8-4.2-.3-1.1-.5.1-.6 2.7l-.1 4.8h-4.5c-4.2 0-4.5-.2-4.6-2.8l-.1-2.7-1 2.7c-.8 2.4-1.6 2.8-4.9 3-2.1.1-4.7.2-5.6.2-1.3.1-2-.9-2.4-3.9-.5-3.1-.6-3.3-.8-1.2 0 1.6-.5 3.7-1.1 4.7-2 3.7-7.9-.6-8.1-6-.1-2.2-.2-2.2-1 .7-1.1 3.8-3 4.2-6 1.2-1.6-1.6-2-2.9-1.6-5.3l.5-3.1-1.1 2.7c-1.2 3.2-3.2 3.8-2.2.8.4-1.2.2-2-.5-2-.8 0-.8-.6 0-2 .6-1.1 2-2 3.1-2 2.6 0 7.9-2.8 7.9-4.1 0-.6-.7-.8-1.6-.5-.9.4-5.5 1.3-10.1 2.1-14.5 2.5-21.3-.8-21.3-10.3 0-3.8.6-5.2 3.3-8 2.7-2.9 2.9-3.3 1-2.8-1.9.6-2.4-.1-5.2-7.4-5.5-14.1-7.3-25.3-5.1-32 .8-2.5.8-2.5.9.4.1 3.9 1 2.8 3.3-4 2.9-8.7 8-15.7 20.1-28.1 12-12.3 20-18.9 24.4-20.3 4.3-1.4 11.2-.3 16.2 2.7zM316 132.2c-1.2 5-1.9 9.2-1.7 9.4 1.3 1.3 5.1-11.4 6.3-21.1.7-6 .7-6 1.7-2.5 1.5 5.8.2 16.8-3.2 25.5-1.7 4.3-6.5 13.7-10.8 20.8l-7.8 12.9-3.5-.6c-8.5-1.3-29.9-3.6-34.2-3.6-5.1 0-5.3-.2-3.8-2.9 1.1-2.2 4.9-3.7 11-4.5l4.5-.6-4.9 2c-2.6 1-5 2.1-5.3 2.4-.3.2 5.8.3 13.4.1 7.6-.2 12.5-.1 10.8.1-7.6 1.3-3.2 4.1 5 3.1 5.4-.6 7.1-2.4 11.9-12.2 4.5-9.1 7.9-21.1 10.2-36 1.7-10.9 1.9-11.5 2.2-6.6.2 3-.6 9.2-1.8 14.3zm-139-3c2.3 5.4 4.7 9.6 5.2 9.5 1.2-.2 5.6 5.7 8.8 11.8 1.2 2.3 5 7.7 8.5 12.2 6.1 7.5 6.7 8.1 11.1 8.7 7.2.9 25.9.7 24.9-.3-.6-.5-2.1-1.1-3.5-1.4-1.6-.3-.9-.5 1.8-.6 2.9-.1 4.1-.5 3.6-1.2-.4-.8.1-.9 1.7-.4 3.7 1.1 7 3.5 6.4 4.5-1.2 2-30.8 9-32.1 7.7-.3-.3 2.8-1.3 6.8-2.3 5.6-1.4 6.6-2 4.4-2.2-1.6-.2-5.7.4-9.2 1.4l-6.3 1.7-4.4-2.6c-5.4-3.2-14.1-12.5-18.5-20-6-10-12-25.5-14.8-38.2l-.4-2 .9 2c.5 1.1 2.8 6.4 5.1 11.7zm-33.8 7c-2.9 1.1-4.1.9-5.2-1.3-.9-1.7-.8-2.3.7-3.5 1.6-1.2 2.1-1 4 1.4 2.1 2.5 2.1 2.7.5 3.4zm212.8-3.3c0 3-1.6 4.3-4.3 3.6-2.6-.7-2.7-.8-1.1-3.5 1.8-3 5.4-3.1 5.4-.1zm-209.4 9.4c4.7 2 8.3 4.8 7.9 6-.2.7-.6 2.4-.9 3.9-.9 3.9-3.4 3.6-3.8-.5-.4-3.2-.6-3.1-2.6 3.2l-1.1 3.4 4.5-.6c4.1-.4 4.6-.2 5.5 2 1.4 3.7 1.1 4.9-1.8 8.3-2.2 2.6-3.2 3.1-5.9 2.8-2.9-.3-3.5 0-4.5 2.4-1.4 3.3-2 3.4-4.3.9-1.5-1.6-1.5-2.2-.4-4 .9-1.4 1.9-1.9 3.3-1.5 1.6.5 1.7.4.8-.6-.6-.7-.9-2.7-.6-4.6.8-4.8-1.3-9.4-4.3-9.4s-3.1-1.8-.1-2.2c2-.3 2.2-.9 2.2-5.6 0-5.8.8-6.3 6.1-3.9zm206.1 1.4c-.6 3.4 1.1 8.3 2.9 8.3.8 0 1.4.4 1.4 1 0 .5-.9 1-2.1 1-2.8 0-5.5 6.4-4 9.6.9 2 .5 2.7-2.5 5.3-4 3.6-3.6 3.4-6.7 2-4.1-1.9-6.2-9-3.5-11.7 2.4-2.4 3.3-1.2 3.1 3.5-.2 3.6-.1 4.3.6 2.8.5-1.1 1-3.2 1-4.8.1-2.2.6-2.7 2.7-2.7 2.4 0 2.4-.1 1-2.2-.9-1.2-1.6-3.3-1.6-4.6 0-1.4-.4-2.1-1.1-1.6-.6.3-.9 1.7-.6 3 .6 3.3-2.1 3.2-3.3-.2-1.9-4.8-1.2-6.1 4.2-8.8 6.9-3.5 9.2-3.4 8.5.1zm-244.2 2.2 1.4 2.6-.6-3.3-.6-3.3 5.9.3 5.9.3.3 4.6c.3 4.5.3 4.6-3.6 5.7-6.3 1.9-12.9 1.6-14.2-.7-1.3-2.5-1.3-5.7 0-8.1 1.3-2.4 3.6-1.6 5.5 1.9zm23 1.1v4.5h-4c-3.8 0-4-.2-4.3-3.3-.5-5.3.3-6.4 4.5-6 3.8.3 3.8.3 3.8 4.8zm6.9-3.4c1.3 3.3.6 6.3-1.5 6.9-2.4.8-3.9-.8-3.9-4.1 0-3.8 4.2-6 5.4-2.8zm221.6.4c1.1 2 .4 7-1 7-2.7 0-4-1.5-4-4.4 0-4.9 2.9-6.5 5-2.6zm23.4-1.4c.9.3 1.6 1.3 1.6 2.2 0 1.2.4 1.1 1.6-.6 2.4-3.5 4.6-1.1 4.2 4.7l-.3 4.6-5 .3c-2.7.2-6.9-.2-9.3-.9l-4.4-1.2.6-4c.4-2.2.9-4.4 1.2-4.9.6-.9 7.5-1.1 9.8-.2zm-13.1 1.1c.2.5.2 2.5 0 4.5-.5 3.7-.7 3.8-4.4 3.8-3.6 0-3.9-.2-3.9-2.9 0-1.6-.3-3.6-.6-4.5-.5-1.3.2-1.6 3.9-1.6 2.5 0 4.8.3 5 .7zm-36.3 3.9c0 .9-.9 2.9-2 4.5-1.2 1.6-3.9 5.9-6 9.6-3.9 6.7-5.2 6.3-2.6-.7 1.5-4.3 8.4-15 9.7-15 .5 0 .9.7.9 1.6zm-193.6 10.5c1 5.2.8 6.1-1.6 5.7-2.9-.4-4.9-6.5-2.7-7.9 2.5-1.6 3.6-1 4.3 2.2zm190.6 3c-1.2 3-3.4 8.1-4.9 11.4-1.5 3.3-3.6 8.7-4.7 11.9l-1.9 6-.3-3.9c-.5-5.8 5.7-22.3 10.9-28.9 3-3.8 3.3-2.7.9 3.5zm2.3 7.5c-1.9 9.6-2.6 16.2-2.7 25.9-.1 11.7.1 13.5 2.2 17.8 2.3 4.5 2.4 7.7.4 7.7-.5 0-2.6-3.4-4.7-7.5-3.7-7.2-3.8-7.7-3.1-14.7 1.2-14.3 2.4-22.4 4.1-27.8 2-6.5 5.6-15.2 6.1-14.7.2.2-.8 6.1-2.3 13.3zm25.6-12c.2.2-.3 2-1.2 4.1-1.1 2.8-2 3.7-3.4 3.5-2.6-.5-2.6-.5-1.3-5.1 1-3.7 1.4-4.1 3.3-3.5 1.2.3 2.4.8 2.6 1zm-58.3 7.1c-1.4 2-2.6 3.4-2.6 2.9 0-1.3 4.2-7.8 4.7-7.2.3.2-.7 2.2-2.1 4.3zM124 165.9c2.2 4.2 1.3 6.6-3.7 9-4.1 2-4.8 2.1-5.8.8-3.8-5.6-3.6-5.4-3.1-3 .6 3.4-.9 2.8-2.7-1l-1.6-3.2 4.7-2.2c6.1-2.8 10.8-2.9 12.2-.4zm230.8 5.3c.4 3.6-3.2 5.8-4.8 2.9-1.4-2.6-1.3-4.8.3-5.4 2.5-1.1 4.2-.1 4.5 2.5zm-99.8 2.2c0 3.1-2.2 5-3.8 3.4-1.3-1.3-1.6-4.1-.5-5.1.3-.4 1.5-.7 2.5-.7 1.2 0 1.8.7 1.8 2.4zm-117.6 2.2c1.7.7 2.2 4.9.7 5.9-.5.3-2.1-.5-3.5-1.8-1.9-1.8-2.3-2.6-1.4-3.5 1.4-1.4 2-1.4 4.2-.6zm223.1.5c1 1.6-4.1 5.9-5.4 4.6-1.6-1.6-1.3-3.5.7-4.6 2.2-1.3 3.9-1.4 4.7 0zm-213.6 11.8c.9 8.2 1.4 9.9 4.1 13.2 1.6 2.1 3 4.3 3 5 0 .8 1 .9 3.1.5 3.1-.6 3.1-.5 2.5 2.6-1.2 5.8-3.5 6.7-8 2.9-4.9-4.2-8.1-17.2-6.9-28.4.3-3.1.7-5.6.9-5.5.1.2.7 4.5 1.3 9.7zm2.9.1v4.5l-.9-4c-.4-2.2-.8-5.6-.7-7.5v-3.5l.8 3c.4 1.6.8 5 .8 7.5zm217.7-5.6c2.1 2.8 2.4 3.9 1.6 5.4-1.1 2-3.2 3.2-5.5 3.2-.8 0-2.5-1.8-3.9-3.9l-2.6-4 2.7-2c3.7-2.8 4.7-2.6 7.7 1.3zM133.1 181c2.5 1.4 2.4 3.9-.5 7.5-2.2 2.8-2.5 2.9-5 1.6-3.4-1.9-3.4-5.3 0-8 3.1-2.4 3-2.4 5.5-1.1zm216.6 8.8c-1.2 13.6-8 26.7-12.6 24.3-1.1-.6-2.2-2-2.5-3.1-1.9-6.4-1.9-6.5-.5-5.3 2.2 2.1 5.9 1.6 5.9-.7 0-1.1.7-2.3 1.5-2.7 2.7-1 4.5-6.1 5.2-14.2.5-7.1.8-7.8 2.1-6.5 1.1 1.2 1.3 3 .9 8.2zm-195.8 3.7c.1 1.7-.1 1.7-.9.5-.5-.8-.9-3.5-.9-6l.1-4.5.9 4c.4 2.2.8 4.9.8 6zm190.6-4c-.4 2.5-1 4.4-1.2 4.1-.3-.3-.2-2.6.2-5.1.3-2.6.9-4.5 1.2-4.2.2.3.1 2.6-.2 5.2zm-192.6 8c0 .5-.4.3-.9-.5s-.9-2.2-.9-3c0-1.6 1.7 1.6 1.8 3.5zM340 196c-.6 1.2-1.4 1.9-1.7 1.7-.2-.3.1-1.5.7-2.7.6-1.2 1.4-1.9 1.7-1.7.2.3-.1 1.5-.7 2.7zm-181 4.9c-1.4 2.7-4.2 2.7-5.8.1-1.2-1.9-1.1-2 .9-.8 1.8 1.1 2.3 1 3.7-.8 2-2.6 2.8-1.4 1.2 1.5zm80.3-2.2c-.7.2-1.9.2-2.5 0-.7-.3-.2-.5 1.2-.5s1.9.2 1.3.5zm15.7 2.4c0 2.1-.1 2.2-2.4 1.3-1.9-.7-2.1-3-.3-3.7 1.8-.6 2.7.2 2.7 2.4zm19.3-2c3 1.6 3.7 2.8 3.7 6.9 0 4.5-2.2 8-11.1 17.6-3.9 4.4-8 9.2-8.9 10.8-1.8 2.8-1.8 2.8-3.7.9-1.1-1.1-4.7-3.6-8.1-5.7-3.4-2.1-6.2-3.9-6.2-4.2 0-.2 1.7-1.2 3.8-2.1 3.4-1.7 3.7-2.2 4-6.3.2-3.7-.1-5-2-6.6-2.5-2.3-8.3-4.6-9.2-3.7-.3.4-.6 4.3-.6 8.7l-.1 8.1-2.8-3.4c-3.7-4.2-5.5-11-4-14.4 2.9-6.4 12.4-6 19.7.7 4 3.6 4.5 5.3 2.4 8.4-2.2 3.1-4.7 12.6-3.7 14.2 1.1 1.7 2.3 1.1 2.9-1.6.5-1.8 1.2-2.4 2.2-2 .9.3 1.9.6 2.4.6.4 0 1.1 1.1 1.4 2.5.4 1.4 1.4 2.5 2.2 2.5 1.2 0 1.5-.6 1-2.3-.3-1.2-1.1-4.7-1.7-7.7-.6-3-1.6-6.5-2.1-7.7-.8-1.7-.5-3 1.3-6.4 4.1-7.4 11.5-10.8 17.2-7.8zM338 201c1 0 2.4-.8 2.9-1.8.6-.9 1.1-1.2 1.1-.6 0 1.8-3.7 4.6-5.7 4.2-1.1-.2-1.9-1.3-2.1-2.8-.2-2.2-.1-2.3.8-.8.6 1 2 1.8 3 1.8zm-94.2 11.2c.7.7 1.2 2.5 1.2 4 0 2.1-.6 3.1-2.6 3.8-1.4.6-2.7 1-3 1-.2 0-.4-2.3-.4-5 0-4.1.3-5 1.8-5 1 0 2.3.5 3 1.2zm84 4.8c1.1 2.2 1.6 4 1.2 4-.9 0-3.5-3-4.9-5.8-1-1.8-.9-2.2.3-2.2.7 0 2.3 1.8 3.4 4zm-73.1 5.6c-1 1-2.9-1.7-2.2-3.2.6-1.7.8-1.7 1.6.5.5 1.3.8 2.5.6 2.7zm.9 67c-1.9 3.8-3.5 6.6-3.6 6.2 0-1.1 6.3-13.8 6.8-13.4.2.2-1.3 3.5-3.2 7.2zm-6.5 15c-1.5 3.8-3.3 9.1-4 11.9-1.3 5.5-4 11-4.1 8.4 0-3.1 9.7-28.5 10.6-27.6.2.2-.9 3.4-2.5 7.3zm-145.8 5.8c.6 1.5-1.1 3.6-2.9 3.6-1.4 0-2.7-2.8-1.8-4.1.8-1.4 4.1-1.1 4.7.5zm20.7 6.7c0 .5-1 .9-2.1.9-1.8 0-1.9-.2-.9-1.5 1.2-1.5 3-1.2 3 .6zm114.1 6.6c-1.2 2-1.4 1.4-.5-1.2.4-.9.9-1.4 1.1-1.1.3.2 0 1.3-.6 2.3zm-4 11c-3.7 10-9.3 22.5-9.8 21.9-.2-.2 2.4-7.2 5.8-15.5 6.6-16.1 8.8-19.7 4-6.4zm-84.6 7.3c0 2.2-2.9 1.8-3.3-.3-.3-1.4.1-1.8 1.5-1.5 1 .2 1.8 1 1.8 1.8zm-4.1 5.9c.3.5.3 2.3 0 4.1-.6 2.6-1.1 3.1-3.3 2.8-3.5-.4-4-4-.9-6.2 2.6-1.8 3.5-2 4.2-.7zm-10.4 2.5c0 1.7-2.7 2.9-3.5 1.6-.4-.6-.3-1.5 0-2 .9-1.5 3.5-1.2 3.5.4zm17 1.2c0 .8-.7 1.4-1.5 1.4-1.5 0-2.1-2.1-.9-3.3 1-.9 2.4.2 2.4 1.9zm168 9c0 .9-.5 1.4-1.2 1.2-1.8-.6-2.1-2.8-.4-2.8.9 0 1.6.7 1.6 1.6z"/>
  <path d="M228.4 55.8c-9.9 7.3-20.7 21.6-24.3 32.4-2.1 6.1-2.7 16.4-1.3 20 .4 1 .7-1.5.7-5.5.1-9.2 3.1-18.3 9.4-27.9C217.4 68 227 58 231.5 55.4c1.1-.7 1.7-1.4 1.4-1.8-.3-.3-2.3.7-4.5 2.2zM277.1 62c12.6 12.4 19.1 25.2 19.3 38.2.1 8.9 1.4 7.3 1.5-1.9.2-13.6-9.1-29.5-23.4-39.9-2.8-2.1-2.1-1 2.6 3.6zM228.2 84.6c-6.6 3.3-13.5 11-16.1 18-2.3 6-2.7 8.9-1.1 7.9.6-.4 1 .6 1 2.3 0 1.7 1 4 2.5 5.6 2.3 2.4 2.3 2.7.5 2.1-1.1-.3-2-.2-2 .3 0 1.3 5.1 2.2 12.9 2.2 4.9 0 7.8-.6 11.1-2.3 4.2-2.1 7.2-5.8 3.6-4.4-1.2.5-1.1 0 .6-2.4 4.3-5.8 3.5-23.2-1.4-29.4-2.5-3.2-5.1-3.1-11.6.1zm1.5 18.4c.7 3.5 2.2 4 2.4.7.2-2.2.2-2.2.6.1 1.1 5.6-7.1 8.5-10.3 3.7-1.5-2.3-1.5-2.7 0-5 2.4-3.7 6.5-3.4 7.3.5zM264.6 85.2c-5.7 5.7-5.7 19 0 27.4 1.8 2.6 2 3.5 1 3.1-3-1.2-1.6 1.2 1.7 3 4.5 2.5 16 2.4 20.7-.1 2.1-1.2 3-2.1 2.2-2.4-.8-.2-1.9.1-2.5.7-.6.6-1.7 1.1-2.5 1.1-1.1 0-1.1-.3.1-1.5.8-.7 1.8-3.1 2.2-5.2.4-2.1 1-3.2 1.2-2.6.3.7.8 1.3 1.3 1.3.9 0-1.3-9-3.6-14.6-2.3-5.5-6-10-9.9-11.8-5.1-2.5-8.3-2-11.9 1.6zm14.2 17.4c.6 5.9-6.2 8.3-8.9 3.3-1.7-3.2-.4-4.9 3.6-4.9 2.4 0 3.4-.4 2.9-1.1-.4-.7-.1-1 .7-.7.8.2 1.5 1.8 1.7 3.4zM253.2 122.6c-1.2.8-2.8 2.7-3.6 4.2-1.8 3.4-3.1 10.2-2 10.2.4 0 2.3-1.5 4.2-3.3l3.3-3.2 2.7 3.3c5.2 6.3 6.3 3.2 2.2-6.3-2.4-5.6-4.1-6.8-6.8-4.9zM151 163.2c0 2.1.5 3.8 1 3.8 1.3 0 1.3-4 0-6-.7-1.1-1-.5-1 2.2zM261.2 208.2c-.7.7-1.2 3.3-1.2 5.8 0 5 2.1 8 5.4 8 1.9 0 4.6-5.5 4.6-9.3 0-4.4-5.9-7.4-8.8-4.5zm5.4 3.1c.6 1.8-1.3 6.7-2.6 6.7-1.1 0-1.4-3.9-.4-6.4.7-1.9 2.3-2.1 3-.3zM370.6 66.3c-2.5 4.6-4.9 9.9-5.2 11.8-.5 3-.2 2.7 2.9-2.7 4.4-7.6 8.2-16.3 7.4-17-.3-.3-2.6 3.2-5.1 7.9zM134.8 114.6c-4.4 2.3-3.3 3.4 1.2 1.3 2.2-1.1 4-2.2 4-2.4 0-.9-2.5-.4-5.2 1.1zM348.5 272c-2.2 1.2-5.3 4-7 6.3-2.6 3.6-3 5.2-3.4 12-.3 7.5-.2 8 3.2 13.1 2.7 4 4.3 5.5 6.7 6 5.6 1.1 12.1.7 15.6-1 3.4-1.6 3.4-1.7 3.4-8.4 0-7.2-.5-8-5.5-8-3.1 0-5.5 2.5-4.8 5 .7 2.6 2 2.6 2.8 0 .7-2.3 3.3-2.7 4.1-.5 1.2 3-.5 6.5-3.1 6.5-8 0-11.8-7.4-7.9-15.5 1.6-3.4 6.5-6.5 10.4-6.5 5.1 0 11.7 6 14.1 12.8l1.1 3.1 7.4-5.9c4-3.2 8.7-6.7 10.4-7.6 1.6-1 3-2.2 3-2.6 0-1.8-2.3-1.7-8.4.3-3.7 1.2-6.9 2-7.2 1.7-.3-.3.7-2.8 2.3-5.6 1.5-2.8 2.4-5.4 2-5.9-.5-.4-8.6-.9-18-1.1-15.8-.2-17.5-.1-21.2 1.8z"/>
  <path d="M388.7 276.1c-1 1.8-1.6 3.4-1.4 3.6.3.2 2.3-.4 4.6-1.3 4-1.6 4.1-1.7 2.5-3.5-2.4-2.6-3.6-2.4-5.7 1.2zM122.9 278c-5.2.9-11.4 3.8-17.7 8.3l-4.2 3 3.7 2.2c4.5 2.4 8.2 10.3 8.3 17.2 0 2.4.1 4.3.3 4.3.1 0 2-.9 4.2-2s4.7-2 5.7-2c1.4 0 1.8-.8 1.8-3.5 0-3.4-1.2-4.6-2.5-2.5-.9 1.5-2.5 1.2-2.5-.4 0-.7 1.3-1.9 2.8-2.5 1.6-.7 3.6-2.7 4.6-4.7 1.1-2.4 3-4.1 5.9-5.4 5.3-2.5 7.1-2.5 12.2 0 10.9 5.3 9.6 19.6-1.8 18.8-3.4-.2-4.3-.7-4.5-2.5-.4-2.7 3-4.7 6.4-3.9 2.8.7 3.3-1.4.9-3.4-1.2-1-2.5-1-6.8.1l-5.2 1.4v7l.1 7 9.1-.1c13-.2 15.5-1.8 16.7-10.5 1.3-9.3 1.1-13.1-1.2-18.2-3-6.7-6.1-8-20.2-8.3-6.3-.2-13.6.1-16.1.6zM395.9 287.1c-9.2 6.6-16.9 13.3-16.9 14.7 0 .8 2.8-1.2 6.2-4.4 3.5-3.1 8.6-7.2 11.5-9.1 2.9-1.8 5.3-3.6 5.3-3.8 0-1.2-2-.3-6.1 2.6zM397.3 291.5c-9.9 6.7-18 15.1-20.3 21.2-2.6 7.1-6.1 12-11.4 15.9-2.8 2.1-6.2 6.5-9.8 12.5-9 15.3-9.1 14.5.9 9.5 4.8-2.4 11.5-5.5 14.9-6.8 3.9-1.6 7.8-4.3 11.1-7.6 2.7-2.7 6.8-5.9 8.9-7.1 3.6-1.9 3.7-2.1.9-1.5-6.6 1.3-15 3.6-18.6 5-2 .9-4.7 1.4-6 1.2-1.9-.3-1.4-1.4 6.1-11.8 10.7-15 17.8-22.9 25-28.2 3.2-2.4 5.9-4.6 5.9-5.1.2-1.6-2.7-.5-7.6 2.8z"/>
  <path d="M401 295.1c-6.5 4.7-12.5 11.2-21.7 23.6-4.6 6.1-8.3 11.4-8.3 11.6 0 .3 3.3-.6 7.4-1.9 7.8-2.5 24.2-5.4 30.1-5.4h3.6l-.7-10.8c-.6-10-3.3-20.2-5.4-20.2-.4 0-2.6 1.4-5 3.1zm-3.3 17.4c.3.9.3 1.9-.1 2.2-.8.9-3.7-1.8-3-2.8.8-1.4 2.4-1.1 3.1.6zm-4.7 6.3c0 1.3-1.2 2.2-2.2 1.6-1-.6-.1-2.4 1.3-2.4.5 0 .9.4.9.8zM88 310.5c0 5 1.2 10.5 2.3 10.5 1.3 0 .2-10.9-1.2-12.3-.8-.8-1.1-.2-1.1 1.8zM99.3 328.1c-5.5 1.6-4.2 3.9 2.1 3.9 6 0 10.4 1.3 15.9 4.7 4.1 2.5 4.5 1.8 2.1-3.2-2.7-5.7-11.2-8-20.1-5.4zM353.7 332.8c-1.9.2-3.7 1.6-5.7 4.3-3.1 4.3-11.3 19.9-12.5 23.8l-.7 2.3 3.7-2.5c2.8-1.9 5.8-6.1 11.2-15.3 4-7 7.2-12.8 7.1-12.8-.2-.1-1.6 0-3.1.2zM402.5 338.6c-6.6 1.2-8.5 2-11 4.6-2.2 2.2-2.5 2.9-1.1 2.4 1-.3 5.9-.9 10.8-1.3 8.3-.6 9-.8 9.9-3 1.1-2.9 1.2-4.3.2-4.2-.5 0-4.4.7-8.8 1.5zM98.7 347c.7 2.5 6.1 7.2 7.7 6.7 1.4-.5 1.9-3.2 1.2-6.3-.6-2.1-1.2-2.4-5-2.4-3.9 0-4.4.2-3.9 2zm6.3 2c0 .5-.7 1-1.5 1s-1.5-.5-1.5-1c0-.6.7-1 1.5-1s1.5.4 1.5 1zM368.5 349.3c-3.8 1.8-8.8 4.3-11 5.5l-4 2.3 3.5-.6c1.9-.3 7-1.9 11.3-3.7 5.6-2.3 7.7-3.7 7.7-5 0-1-.1-1.8-.2-1.7-.2 0-3.4 1.5-7.3 3.2zM403.7 350c.8 3.1 1.9 3.2 3.1.5 1.1-2.3.9-2.5-1.2-2.5-1.9 0-2.3.4-1.9 2zM187.4 352.7c-5.6.4-6.4.7-9.9 4.3-3.2 3.2-3.5 4-2 4 1 0 3.4-1.4 5.2-3.2 1.8-1.8 3.3-2.7 3.3-2 0 .7-.3 1.2-.8 1.2-.4 0-1.3.9-2 2-1.2 1.9-1.1 2 3 1.4 2.4-.4 5.9-2 8.1-3.6 3.7-3 4.8-5 2.5-4.6-.7.1-4 .3-7.4.5zM122.2 355.2c-.5.7-1.3 2.3-1.6 3.5-.6 1.8-.2 2.4 1.9 2.9 3.2.8 3.3.7 2.7-3.9-.4-3.9-1.3-4.6-3-2.5zM167 356.1c-4.1 1.1-10.1 3.2-13.3 4.6-4.6 2.1-5.5 2.8-4.6 3.9.9 1.1.6 1.4-1.8 1.4-1.7 0-3.8.9-4.8 2-1.7 1.8-1.7 2-.1 2 .9 0 4.5-1.3 7.9-2.9 3.5-1.6 9.8-3.6 14.1-4.4 6.7-1.3 8.4-2 11.5-5.1 3.5-3.5 3.5-3.6 1.1-3.5-1.4 0-5.9.9-10 2zM194 359.3c-4.2 5.7-5.2 8.1-2.2 5.4 3-2.7 8.4-10.7 7.3-10.7-.6 0-2.8 2.4-5.1 5.3zM374.5 355c-1.9.8-1.9.9.3.9 1.2.1 2.2-.4 2.2-.9 0-.6-.1-1-.2-.9-.2 0-1.2.4-2.3.9zM184.1 366.1c-1.6 1.3-1.8 1.9-.8 1.9 1.5 0 4.3-2.7 3.6-3.4-.2-.3-1.5.4-2.8 1.5zM171.6 368.5c-2.2 1.9-3.4 3.5-2.7 3.5 1.8 0 7.4-2.7 10.1-4.9l2.5-2.1-3 .1c-2 0-4.3 1.2-6.9 3.4zM163.6 370c-3.9 3.3-4.4 4-2.7 4 1.2 0 4.1-1.8 6.4-4 5.5-5.2 2.7-5.2-3.7 0zM293.6 366.8c1.3 1.2 12.4 7.4 12.4 7 0-1.1-10-7.8-11.6-7.8-1 0-1.4.3-.8.8zM130 368c0 .5 1.9 1 4.2 1 4.9 0 4.7-.5-.4-1.4-2.4-.4-3.8-.3-3.8.4zM156.9 368.7c-2.5.8-5.9 2.6-7.5 3.9l-2.9 2.3 4-1.1c2.2-.5 6.1-2.1 8.8-3.4 7.2-3.7 6-4.5-2.4-1.7zM359 371.9l-2.5.7 2.2 1.2c1.9 1 3.3 1 7.8-.3 3-.9 5.5-1.8 5.5-2.1 0-.7-10.2-.3-13 .5zM172.9 374.9c-2.4 1.7-6 4.3-7.9 6-3 2.6-3.2 3-1.5 3.1 1.7 0 15.5-10.3 15.5-11.6 0-1-2-.2-6.1 2.5zM353.8 373.7c.7.3 1.6.2 1.9-.1.4-.3-.2-.6-1.3-.5-1.1 0-1.4.3-.6.6zM159 376.7c-6 1.3-10.3 3.3-6.9 3.3 2.6 0 12.4-2.6 14.4-3.8 2.5-1.5.9-1.4-7.5.5z"/>
</svg>
