<?xml version="1.0" encoding="UTF-8" standalone="no"?>
<svg
   xmlns:dc="http://purl.org/dc/elements/1.1/"
   xmlns:cc="http://creativecommons.org/ns#"
   xmlns:rdf="http://www.w3.org/1999/02/22-rdf-syntax-ns#"
   xmlns:svg="http://www.w3.org/2000/svg"
   xmlns="http://www.w3.org/2000/svg"
   version="1.1"
   id="svg2"
   viewBox="0 0 1080 1080"
   height="12in"
   width="12in">
  <defs
     id="defs4" />
  <metadata
     id="metadata7">
    <rdf:RDF>
      <cc:Work
         rdf:about="">
        <dc:format>image/svg+xml</dc:format>
        <dc:type
           rdf:resource="http://purl.org/dc/dcmitype/StillImage" />
        <dc:title></dc:title>
      </cc:Work>
    </rdf:RDF>
  </metadata>
  <g
     transform="translate(0,27.63782)"
     id="layer1">
    <g
       transform="matrix(0.72254444,0,0,0.72254444,2906.0967,3458.0965)"
       id="layer1-9">
      <path
         d="m -3001.4751,-3524.3493 c -77.1194,-30.5085 -131.5426,-56.2172 -144.5695,-68.2925 -10.4876,-9.7215 -12.6928,-30.4379 -4.8689,-45.7402 3.4059,-6.6614 -2.3918,-28.4573 -19.3714,-72.8252 -13.3277,-34.8252 -32.6049,-93.1533 -42.8382,-129.618 -10.2333,-36.4648 -20.7346,-67.0188 -23.3363,-67.8979 -2.6016,-0.8792 -9.6899,7.7476 -15.7516,19.1706 -6.0617,11.423 -13.5162,21.5806 -16.5654,22.5725 -3.0493,0.9919 -12.3685,-9.7689 -20.7093,-23.9129 -8.3409,-14.1441 -17.5546,-24.204 -20.4748,-22.3554 -2.9202,1.8486 -10.2003,14.6859 -16.1779,28.5273 -5.9776,13.8414 -13.1241,25.1661 -15.8811,25.1661 -2.757,0 -17.8076,-27.9399 -33.4458,-62.0887 -15.6382,-34.1488 -30.6117,-62.0888 -33.2745,-62.0888 -6.9028,0 -7.6387,4.4755 -36.6633,222.9551 -14.4346,108.6553 -28.9474,200.5149 -32.2506,204.1325 -6.3904,6.9985 -61.6055,0.8478 -69.9892,-7.7965 -2.3606,-2.4339 7.951,-96.7918 22.9147,-209.6842 l 27.2067,-205.2589 -13.7341,-16.7181 c -25.1073,-30.5627 -16.0623,-71.4602 20.4576,-92.5 7.2028,-4.1498 14.0725,-43.2526 34.1087,-194.152 13.7992,-103.9257 23.2058,-190.885 20.9037,-193.2429 -2.3021,-2.358 -27.6544,-0.4843 -56.3385,4.1632 -159.4381,25.834 -275.1762,68.5674 -365.5191,134.9587 -23.5082,17.2758 -43.8315,31.4105 -45.1628,31.4105 -14.3114,0 45.8776,-96.8522 93.5899,-150.5986 62.2248,-70.0943 142.3719,-123.6872 223.609,-149.5231 35.5219,-11.2971 52.9466,-13.1443 123.9903,-13.1443 45.4631,0 92.3083,2.0872 104.1004,4.6381 l 21.4403,4.638 -3.4061,40.5174 c -1.8734,22.2846 -15.8611,134.2884 -31.0839,248.8974 -15.2229,114.6089 -27.6779,214.3037 -27.6779,221.5439 0,11.2026 2.786,13.164 18.6979,13.164 24.3887,0 103.7977,-16.602 110.4912,-23.1004 3.1989,-3.1057 -0.1696,-11.0327 -8.7571,-20.6067 -56.5091,-63.0017 -73.5227,-147.9428 -49.1687,-245.4772 28.3961,-113.7227 120.591,-238.0628 209.7814,-282.9253 113.7185,-57.2 225.896,-16.6721 331.9689,119.9349 78.5577,101.1715 110.1237,218.8237 83.5619,311.4506 -11.9705,41.744 -25.6776,64.0934 -64.2874,104.8208 l -32.8503,34.6521 8.6038,35.9033 c 14.5635,60.7734 -1.4751,153.9018 -54.394,315.8404 l -29.2803,89.6012 21.6403,26.8233 c 24.1636,29.951 24.7726,37.4369 3.2577,40.0457 -19.4204,2.3549 -18.6862,14.6352 1.8026,30.1509 26.6363,20.171 21.6351,27.3296 -19.0935,27.3296 -29.9856,0 -36.5593,1.7872 -41.524,11.2889 -8.3037,15.8923 -21.4633,13.8205 -93.6815,-14.7492 z m 56.7551,-592.9429 c 5.4529,-1.5637 15.3721,-14.3927 22.0427,-28.5088 10.3273,-21.8542 16.2821,-27.2371 40.0989,-36.2479 35.0887,-13.2755 69.5741,-43.1792 89.1703,-77.3234 13.463,-23.4578 15.1155,-31.9041 15.1155,-77.2558 0,-45.9871 -1.7258,-54.5093 -17.8195,-87.9936 -22.6475,-47.1203 -66.3165,-90.0253 -115.7675,-113.7422 -31.331,-15.0265 -45.3351,-18.2262 -88.2073,-20.1543 -79.6459,-3.5818 -134.9422,16.0493 -185.1781,65.741 -48.1259,47.6045 -69.7013,96.8553 -69.7013,159.109 0,68.7644 31.2609,116.3251 97.2476,147.9535 28.884,13.8445 36.1227,20.0101 38.6423,32.9138 4.7963,24.5636 22.9079,38.2113 54.2285,40.8629 29.9231,2.5331 104.163,-0.7757 120.1279,-5.3542 z m -91.8817,-95.1364 c -11.2462,-11.5192 -11.2818,-19.3945 -0.1609,-35.6573 11.4497,-16.7435 29.6393,-14.024 40.6139,6.0721 6.4044,11.7273 6.9814,17.8766 2.3837,25.3999 -8.1071,13.2654 -31.7196,15.5725 -42.8369,4.1853 z m -115.784,-70.9571 c -51.9963,-41.8929 -35.7717,-134.1076 25.3838,-144.2726 73.0719,-12.1458 104.0423,112.2714 36.8113,147.8817 -21.7451,11.5178 -45.1025,10.1624 -62.1951,-3.6091 z m 208.1562,6.2554 c -28.0212,-11.5967 -45.4699,-54.218 -38.2761,-93.4953 12.1359,-66.2597 92.6756,-78.2176 120.6162,-17.9081 29.8936,64.525 -22.9282,135.9911 -82.3401,111.4034 z"
         id="path3009"
         style="fill:#0b0b0b" />
    </g>
  </g>
</svg>
